<svg width="32" height="32" viewBox="0 0 32 32" fill="none" xmlns="http://www.w3.org/2000/svg">
<path d="M17.9397 3.42857C18.5342 3.42857 19.0746 3.50265 19.5742 3.65917C20.0969 3.82296 20.569 4.07563 20.9953 4.41971C21.4025 4.7485 21.764 5.15713 22.0937 5.65177L22.3975 6.10573L22.5506 6.32175C22.6613 6.47006 22.7357 6.54746 22.8195 6.61686C22.9185 6.69869 23.0175 6.75161 23.1405 6.78856C23.2864 6.83246 23.4351 6.85205 23.7999 6.85625L24.0493 6.85821C25.412 6.91702 26.1878 7.10437 27.0056 7.54175C27.8753 8.00683 28.5646 8.69616 29.0297 9.56581C29.5378 10.516 29.7143 11.4297 29.7143 13.2743V20.1032C29.7143 22.5981 29.4826 23.7977 28.816 25.0442C28.2114 26.1746 27.3175 27.0686 26.1871 27.6731C24.9406 28.3398 23.7409 28.5714 21.2461 28.5714H10.754C8.2591 28.5714 7.05939 28.3398 5.8129 27.6731C4.68251 27.0686 3.78855 26.1746 3.18402 25.0442C2.55247 23.8633 2.3113 22.7245 2.28767 20.4865V12.9391C2.30906 11.3153 2.49391 10.4566 2.97031 9.56581C3.4354 8.69616 4.12473 8.00683 4.99437 7.54175C5.78398 7.11946 6.5334 6.93163 7.79583 6.87542L7.89675 6.86177L8 6.85714L8.20015 6.85625C8.56487 6.85205 8.71355 6.83246 8.85959 6.78856C8.98255 6.75161 9.08145 6.69869 9.18041 6.61686C9.29793 6.5197 9.39671 6.40686 9.60252 6.10573L9.90623 5.65177C10.236 5.15713 10.5974 4.7485 11.0047 4.41971C11.431 4.07563 11.9031 3.82296 12.4258 3.65917C12.9254 3.50265 13.4658 3.42857 14.0603 3.42857H17.9397ZM17.9397 5.71429H14.0603C13.687 5.71429 13.3751 5.75704 13.1093 5.84031C12.8603 5.91831 12.6434 6.03441 12.4405 6.19826C12.2238 6.37319 12.0152 6.609 11.808 6.91966L11.4609 7.43674C11.1512 7.88423 10.9286 8.13726 10.6368 8.37849C10.3029 8.65459 9.93246 8.85283 9.51746 8.97755C9.12996 9.09401 8.7751 9.13722 8.16142 9.14233L8.09994 9.14949L7.79146 9.16377C6.9315 9.20769 6.52375 9.31589 6.07232 9.55731C5.601 9.80938 5.23794 10.1724 4.98588 10.6437C4.67903 11.2175 4.57143 11.7747 4.57143 13.2743V20.1032C4.57143 22.253 4.73426 23.0962 5.19959 23.9663C5.5911 24.6984 6.15879 25.2661 6.89083 25.6576C7.66935 26.0739 8.42633 26.2481 10.1169 26.2801L10.754 26.2857H21.2461L21.8831 26.2801C23.5737 26.2481 24.3306 26.0739 25.1091 25.6576C25.8413 25.2661 26.4089 24.6984 26.8005 23.9663C27.2168 23.1878 27.391 22.4309 27.423 20.7402L27.4286 20.1032V13.2743L27.4233 12.7543C27.3985 11.6352 27.2826 11.1458 27.0141 10.6437C26.7621 10.1724 26.399 9.80938 25.9277 9.55731C25.4353 9.29399 24.991 9.18669 24 9.14286L23.7232 9.14086C23.1791 9.13136 22.8451 9.08653 22.4825 8.97755C22.0675 8.85283 21.6971 8.65459 21.3632 8.37849C21.0714 8.13726 20.8488 7.88423 20.5391 7.43674L20.1919 6.91966C19.9848 6.609 19.7762 6.37319 19.5595 6.19826C19.3566 6.03441 19.1397 5.91831 18.8907 5.84031C18.6249 5.75704 18.313 5.71429 17.9397 5.71429ZM16 10.8571C19.3139 10.8571 22 13.5432 22 16.8571C22 20.1711 19.3139 22.8571 16 22.8571C12.6861 22.8571 10 20.1711 10 16.8571C10 13.5432 12.6861 10.8571 16 10.8571ZM16 13.1429C13.9483 13.1429 12.2857 14.8055 12.2857 16.8571C12.2857 18.9088 13.9483 20.5714 16 20.5714C18.0517 20.5714 19.7143 18.9088 19.7143 16.8571C19.7143 14.8055 18.0517 13.1429 16 13.1429Z" fill="#FF8104"/>
</svg>
