<svg width="32" height="32" viewBox="0 0 32 32" fill="none" xmlns="http://www.w3.org/2000/svg">
<path d="M14.0864 18.3774L5.99048 17.5341C4.90075 17.4205 3.97191 16.6938 3.59949 15.6634C3.0631 14.1794 3.83129 12.5416 5.31528 12.0053L22.1554 5.91845C22.9086 5.64623 23.7331 5.64623 24.4863 5.91845C26.2671 6.5621 27.1889 8.52751 26.5453 10.3083L20.4585 27.1485C20.0861 28.1789 19.1573 28.9055 18.0675 29.019C16.4981 29.1825 15.0931 28.0427 14.9297 26.4733L14.0864 18.3774ZM5.99878 14.1984C5.76453 14.3345 5.65374 14.6226 5.74909 14.8865C5.82358 15.0926 6.00935 15.2379 6.22729 15.2606L15.2454 16.2C15.783 16.256 16.2078 16.6808 16.2638 17.2183L17.2031 26.2365C17.2358 26.5503 17.5168 26.7783 17.8306 26.7456C18.0486 26.7229 18.2344 26.5776 18.3089 26.3714L24.3957 9.53134C24.6102 8.93775 24.303 8.28261 23.7094 8.06806C23.4583 7.97731 23.1834 7.97731 22.9323 8.06806L6.09225 14.1549L5.99878 14.1984Z" fill="#FF8104"/>
</svg>
