<svg width="32" height="32" viewBox="0 0 32 32" fill="none" xmlns="http://www.w3.org/2000/svg">
<path fill-rule="evenodd" clip-rule="evenodd" d="M9.13289 9.14286C9.13289 5.35576 12.2051 2.28571 15.9951 2.28571C19.7849 2.28571 22.8571 5.35576 22.8571 9.14286V14.8571C22.8571 18.6442 19.7849 21.7143 15.9951 21.7143C12.2051 21.7143 9.13289 18.6442 9.13289 14.8571V9.14286ZM15.9951 4.57143C13.4685 4.57143 11.4203 6.61813 11.4203 9.14286V14.8571C11.4203 17.3818 13.4685 19.4286 15.9951 19.4286C18.5216 19.4286 20.5698 17.3818 20.5698 14.8571V9.14286C20.5698 6.61813 18.5216 4.57143 15.9951 4.57143Z" fill="#FF8104"/>
<path d="M26.1581 20.0989C26.4478 19.5379 26.2277 18.8486 25.6663 18.5591C25.105 18.2696 24.4152 18.4896 24.1255 19.0505C23.356 20.5402 22.1915 21.7898 20.7593 22.6627C19.3271 23.5357 17.6823 23.9983 16.0046 24C14.327 24.0017 12.6813 23.5425 11.2471 22.6727C9.81309 21.8027 8.64598 20.5555 7.87342 19.0675C7.58254 18.5072 6.89222 18.2887 6.33153 18.5793C5.77086 18.8701 5.55214 19.5599 5.84301 20.1201C6.80871 21.9802 8.2676 23.5391 10.0602 24.6265C11.5219 25.5133 13.1595 26.0585 14.8513 26.2285V29.7143C14.8513 30.3455 15.3634 30.8571 15.9951 30.8571C16.6267 30.8571 17.1387 30.3455 17.1387 29.7143V26.2285C18.8386 26.0577 20.4837 25.508 21.9504 24.6141C23.7407 23.523 25.1963 21.9609 26.1581 20.0989Z" fill="#FF8104"/>
</svg>
