<svg width="148" height="32" viewBox="0 0 148 32" fill="none" xmlns="http://www.w3.org/2000/svg">
<path d="M72.0864 18.3774L63.9905 17.5341C62.9008 17.4205 61.9719 16.6938 61.5995 15.6634C61.0631 14.1794 61.8313 12.5416 63.3153 12.0053L80.1554 5.91845C80.9086 5.64623 81.7331 5.64623 82.4863 5.91845C84.2671 6.5621 85.1889 8.52751 84.5453 10.3083L78.4585 27.1485C78.0861 28.1789 77.1573 28.9055 76.0675 29.019C74.4981 29.1825 73.0931 28.0427 72.9297 26.4733L72.0864 18.3774ZM63.9988 14.1984C63.7645 14.3345 63.6537 14.6226 63.7491 14.8865C63.8236 15.0926 64.0093 15.2379 64.2273 15.2606L73.2454 16.2C73.783 16.256 74.2078 16.6808 74.2638 17.2183L75.2031 26.2365C75.2358 26.5503 75.5168 26.7783 75.8306 26.7456C76.0486 26.7229 76.2344 26.5776 76.3089 26.3714L82.3957 9.53134C82.6102 8.93775 82.303 8.28261 81.7094 8.06806C81.4583 7.97731 81.1834 7.97731 80.9323 8.06806L64.0923 14.1549L63.9988 14.1984Z" fill="#FF8104"/>
<path d="M133.94 3.42857C134.534 3.42857 135.075 3.50265 135.574 3.65917C136.097 3.82296 136.569 4.07563 136.995 4.41971C137.403 4.7485 137.764 5.15713 138.094 5.65177L138.397 6.10573L138.551 6.32175C138.661 6.47006 138.736 6.54746 138.82 6.61686C138.919 6.69869 139.017 6.75161 139.14 6.78856C139.286 6.83246 139.435 6.85205 139.8 6.85625L140.049 6.8582C141.412 6.91702 142.188 7.10437 143.006 7.54175C143.875 8.00683 144.565 8.69616 145.03 9.56581C145.538 10.516 145.714 11.4297 145.714 13.2743V20.1032C145.714 22.5981 145.483 23.7977 144.816 25.0442C144.211 26.1746 143.317 27.0686 142.187 27.6731C140.941 28.3398 139.741 28.5714 137.246 28.5714H126.754C124.259 28.5714 123.059 28.3398 121.813 27.6731C120.683 27.0686 119.789 26.1746 119.184 25.0442C118.552 23.8633 118.311 22.7245 118.288 20.4865V12.9391C118.309 11.3153 118.494 10.4566 118.97 9.56581C119.435 8.69616 120.125 8.00683 120.994 7.54175C121.784 7.11946 122.533 6.93163 123.796 6.87542L123.897 6.86177L124 6.85714L124.2 6.85625C124.565 6.85205 124.714 6.83246 124.86 6.78856C124.983 6.75161 125.081 6.69869 125.18 6.61686C125.298 6.5197 125.397 6.40686 125.603 6.10573L125.906 5.65177C126.236 5.15713 126.597 4.7485 127.005 4.41971C127.431 4.07563 127.903 3.82296 128.426 3.65917C128.925 3.50265 129.466 3.42857 130.06 3.42857H133.94ZM133.94 5.71429H130.06C129.687 5.71429 129.375 5.75704 129.109 5.84031C128.86 5.91831 128.643 6.03441 128.44 6.19826C128.224 6.37319 128.015 6.60901 127.808 6.91966L127.461 7.43674C127.151 7.88423 126.929 8.13726 126.637 8.37849C126.303 8.65459 125.932 8.85283 125.517 8.97755C125.13 9.09401 124.775 9.13722 124.161 9.14233L124.1 9.14949L123.791 9.16377C122.931 9.20769 122.524 9.31589 122.072 9.55731C121.601 9.80938 121.238 10.1724 120.986 10.6437C120.679 11.2175 120.571 11.7747 120.571 13.2743V20.1032C120.571 22.253 120.734 23.0962 121.2 23.9663C121.591 24.6984 122.159 25.2661 122.891 25.6576C123.669 26.0739 124.426 26.2481 126.117 26.2801L126.754 26.2857H137.246L137.883 26.2801C139.574 26.2481 140.331 26.0739 141.109 25.6576C141.841 25.2661 142.409 24.6984 142.8 23.9663C143.217 23.1878 143.391 22.4309 143.423 20.7402L143.429 20.1032V13.2743L143.423 12.7543C143.399 11.6352 143.283 11.1458 143.014 10.6437C142.762 10.1724 142.399 9.80938 141.928 9.55731C141.435 9.29399 140.991 9.18669 140 9.14286L139.723 9.14086C139.179 9.13136 138.845 9.08653 138.483 8.97755C138.068 8.85283 137.697 8.65459 137.363 8.37849C137.071 8.13726 136.849 7.88423 136.539 7.43674L136.192 6.91966C135.985 6.60901 135.776 6.37319 135.56 6.19826C135.357 6.03441 135.14 5.91831 134.891 5.84031C134.625 5.75704 134.313 5.71429 133.94 5.71429ZM132 10.8571C135.314 10.8571 138 13.5432 138 16.8571C138 20.1711 135.314 22.8571 132 22.8571C128.686 22.8571 126 20.1711 126 16.8571C126 13.5432 128.686 10.8571 132 10.8571ZM132 13.1429C129.948 13.1429 128.286 14.8055 128.286 16.8571C128.286 18.9088 129.948 20.5714 132 20.5714C134.052 20.5714 135.714 18.9088 135.714 16.8571C135.714 14.8055 134.052 13.1429 132 13.1429Z" fill="#FF8104"/>
<path fill-rule="evenodd" clip-rule="evenodd" d="M9.13289 9.14286C9.13289 5.35576 12.2051 2.28571 15.9951 2.28571C19.7849 2.28571 22.8571 5.35576 22.8571 9.14286V14.8571C22.8571 18.6442 19.7849 21.7143 15.9951 21.7143C12.2051 21.7143 9.13289 18.6442 9.13289 14.8571V9.14286ZM15.9951 4.57143C13.4685 4.57143 11.4203 6.61813 11.4203 9.14286V14.8571C11.4203 17.3818 13.4685 19.4286 15.9951 19.4286C18.5216 19.4286 20.5698 17.3818 20.5698 14.8571V9.14286C20.5698 6.61813 18.5216 4.57143 15.9951 4.57143Z" fill="#FF8104"/>
<path d="M26.1581 20.0989C26.4478 19.5379 26.2277 18.8486 25.6663 18.5591C25.105 18.2696 24.4152 18.4896 24.1255 19.0505C23.356 20.5402 22.1915 21.7898 20.7593 22.6627C19.3271 23.5357 17.6823 23.9983 16.0046 24C14.327 24.0017 12.6813 23.5425 11.2471 22.6727C9.81309 21.8027 8.64598 20.5555 7.87342 19.0675C7.58254 18.5072 6.89222 18.2887 6.33153 18.5793C5.77086 18.8701 5.55214 19.5599 5.84301 20.1201C6.80871 21.9802 8.2676 23.5391 10.0602 24.6265C11.5219 25.5133 13.1595 26.0585 14.8513 26.2285V29.7143C14.8513 30.3455 15.3634 30.8571 15.9951 30.8571C16.6267 30.8571 17.1387 30.3455 17.1387 29.7143V26.2285C18.8386 26.0577 20.4837 25.508 21.9504 24.6141C23.7407 23.523 25.1963 21.9609 26.1581 20.0989Z" fill="#FF8104"/>
</svg>
